<svg width="24" height="26" viewBox="0 0 24 26" fill="none" xmlns="http://www.w3.org/2000/svg">
<path d="M14.2151 14.9733C15.2066 13.7519 15.0203 11.958 13.7989 10.9665C12.5776 9.97498 10.7837 10.1613 9.79215 11.3826C8.80062 12.604 8.98693 14.3979 10.2083 15.3894C11.4297 16.381 13.2236 16.1947 14.2151 14.9733Z" fill="#1A51BC"/>
<path d="M20.3533 9.32753C18.9121 8.54454 15.9106 7.23096 12 7.23096C8.08942 7.23096 5.08777 8.54454 3.64666 9.32753C1.88373 10.2854 0 11.8 0 13.1783C0 14.5566 1.88373 16.0712 3.64666 17.029C5.08777 17.812 8.08942 19.1256 12 19.1256C15.9105 19.1256 18.9121 17.812 20.3533 17.029C22.1163 16.0712 24 14.5566 24 13.1783C24 11.8 22.1163 10.2854 20.3533 9.32753ZM4.19516 16.0195C2.09398 14.8779 1.14887 13.6708 1.14887 13.1782C1.14887 12.6857 2.09398 11.4785 4.19516 10.337C5.07967 9.85643 6.59418 9.16184 8.56695 8.74231C7.24243 9.76974 6.38831 11.376 6.38831 13.1782C6.38831 14.9804 7.24243 16.5866 8.56695 17.6141C6.59418 17.1946 5.07967 16.5 4.19516 16.0195ZM12 17.6411C9.5392 17.6411 7.53718 15.6391 7.53718 13.1783C7.53718 10.7174 9.5392 8.71542 12 8.71542C14.4609 8.71542 16.4629 10.7174 16.4629 13.1783C16.4629 15.6391 14.4609 17.6411 12 17.6411ZM19.8049 16.0195C18.9204 16.5 17.4058 17.1946 15.433 17.6142C16.7576 16.5867 17.6118 14.9804 17.6118 13.1783C17.6118 11.3761 16.7576 9.76982 15.433 8.7424C17.4058 9.16192 18.9204 9.85651 19.8049 10.337C21.906 11.4786 22.8512 12.6857 22.8512 13.1783C22.8512 13.6708 21.906 14.8779 19.8049 16.0195Z" fill="#231F20"/>
<path d="M11.6154 5.02112H12.3845C12.4893 5.02112 12.5743 4.93613 12.5743 4.83129V0.9662C12.5743 0.861359 12.4893 0.776367 12.3845 0.776367H11.6154C11.5105 0.776367 11.4255 0.861359 11.4255 0.9662V4.83129C11.4255 4.93613 11.5104 5.02112 11.6154 5.02112Z" fill="#231F20"/>
<path d="M3.79174 7.16683C3.85979 7.24656 3.9797 7.25595 4.05943 7.1879L4.64432 6.68833C4.72404 6.62027 4.73344 6.50036 4.66538 6.42063L2.1552 3.48161C2.08715 3.40189 1.96723 3.39241 1.88751 3.46055L1.30262 3.96004C1.2229 4.02818 1.2135 4.14792 1.28156 4.22773L3.79174 7.16683Z" fill="#231F20"/>
<path d="M19.9406 7.18794C20.0204 7.256 20.1402 7.2466 20.2083 7.16687L22.7185 4.22785C22.7866 4.14813 22.7772 4.0283 22.6975 3.96016L22.1126 3.46067C22.0328 3.39253 21.913 3.40201 21.845 3.48173L19.3348 6.42075C19.2667 6.50048 19.2761 6.62031 19.3558 6.68845L19.9406 7.18794Z" fill="#231F20"/>
<path d="M12.3845 21.0735H11.6154C11.5105 21.0735 11.4255 21.1585 11.4255 21.2633V25.1284C11.4255 25.2332 11.5105 25.3182 11.6154 25.3182H12.3845C12.4893 25.3182 12.5743 25.2332 12.5743 25.1284V21.2634C12.5744 21.1585 12.4894 21.0735 12.3845 21.0735Z" fill="#231F20"/>
<path d="M20.2082 18.9278C20.1401 18.8481 20.0203 18.8386 19.9405 18.9067L19.3556 19.4063C19.2759 19.4743 19.2665 19.5942 19.3345 19.674L21.8447 22.613C21.9128 22.6927 22.0327 22.7022 22.1123 22.6341L22.6972 22.1345C22.7769 22.0664 22.7863 21.9466 22.7183 21.8668L20.2082 18.9278Z" fill="#231F20"/>
<path d="M4.05943 18.9067C3.9797 18.8386 3.85987 18.8481 3.79174 18.9278L1.28156 21.8668C1.2135 21.9465 1.2229 22.0664 1.30262 22.1345L1.88751 22.6341C1.96723 22.7022 2.08706 22.6927 2.1552 22.613L4.66538 19.674C4.73344 19.5943 4.72404 19.4744 4.64432 19.4063L4.05943 18.9067Z" fill="#231F20"/>
</svg>
